<svg xmlns="http://www.w3.org/2000/svg" xmlns:xlink="http://www.w3.org/1999/xlink" viewBox="0 0 393.07 391.98"><defs><style>.cls-1{isolation:isolate;}.cls-2{fill:#d6eaf2;}.cls-13,.cls-15,.cls-19,.cls-2,.cls-20{mix-blend-mode:multiply;}.cls-3{fill:#55c3fe;}.cls-4{fill:#179ecc;}.cls-5{fill:#97dfff;}.cls-6{fill:#35afe5;}.cls-7{fill:#e6f7ff;}.cls-8{fill:#fff;}.cls-9{fill:#cbe9f4;}.cls-10{fill:#144682;}.cls-11{fill:#2d5ca0;}.cls-12{fill:#1890c6;}.cls-13{fill:#c4dde8;}.cls-14{fill:#ea4266;}.cls-15{fill:#2d393d;opacity:0.1;}.cls-16{fill:#e5e5e5;}.cls-17{fill:#f4f4f4;}.cls-18{fill:#fe7386;}.cls-19{fill:#ef92a9;}.cls-20{fill:#e2e2e2;}.cls-21{fill:#c7ebf9;}.cls-22{fill:#4c4c4c;}.cls-23{fill:#112f5b;}.cls-24{fill:#164072;}.cls-25{fill:#1178f2;}.cls-26{fill:#439df7;}.cls-27{fill:url(#linear-gradient);}.cls-28{fill:url(#linear-gradient-2);}.cls-29{fill:url(#linear-gradient-3);}.cls-30{fill:#69b9f9;}.cls-31{fill:#32a5c4;}.cls-32{fill:#adf8ff;}.cls-33{fill:#0a253f;}.cls-34{fill:#0b2d4f;}.cls-35{fill:#ffd629;}.cls-36{fill:#fff42c;}.cls-37{fill:#1d6baa;}.cls-38{fill:#155a93;}.cls-39{fill:#227cc6;}.cls-40{fill:#1d76b2;}.cls-41{fill:#11385e;}.cls-42{fill:#0f2c49;}.cls-43{fill:#aaa;}.cls-44{fill:#fcfcfc;}.cls-45{fill:#4f4f4f;}.cls-46{fill:#ffb6c2;}.cls-47{fill:#0b223d;}.cls-48{fill:url(#linear-gradient-4);}.cls-49{fill:url(#linear-gradient-5);}.cls-50{fill:url(#linear-gradient-6);}.cls-51{fill:#cb2127;}.cls-52{fill:#f24e5a;}.cls-53{fill:url(#linear-gradient-7);}.cls-54{fill:url(#linear-gradient-8);}.cls-55{fill:url(#linear-gradient-9);}.cls-56{fill:#f97081;}</style><linearGradient id="linear-gradient" x1="331.99" y1="109.73" x2="312.13" y2="109.73" gradientTransform="matrix(1.09, -0.17, 0.2, 1.29, -60.35, -16.41)" gradientUnits="userSpaceOnUse"><stop offset="0" stop-color="#ffe2c4"/><stop offset="1" stop-color="#ffb870"/></linearGradient><linearGradient id="linear-gradient-2" x1="308.64" y1="117.29" x2="293.07" y2="119.72" gradientUnits="userSpaceOnUse"><stop offset="0" stop-color="#ffb870"/><stop offset="1" stop-color="#ffe2c4"/></linearGradient><linearGradient id="linear-gradient-3" x1="276" y1="110.27" x2="271.1" y2="111.03" xlink:href="#linear-gradient-2"/><linearGradient id="linear-gradient-4" x1="85.9" y1="87.16" x2="117.42" y2="87.16" xlink:href="#linear-gradient-2"/><linearGradient id="linear-gradient-5" x1="69.66" y1="139.88" x2="119.99" y2="139.88" gradientTransform="matrix(1, 0, 0, 1, 0, 0)" xlink:href="#linear-gradient"/><linearGradient id="linear-gradient-6" x1="57.88" y1="149.21" x2="103.9" y2="149.21" gradientTransform="matrix(1, 0, 0, 1, 0, 0)" xlink:href="#linear-gradient"/><linearGradient id="linear-gradient-7" x1="168.05" y1="81.66" x2="148.18" y2="81.66" gradientTransform="matrix(-1.09, -0.17, -0.2, 1.29, 267.8, -16.41)" xlink:href="#linear-gradient"/><linearGradient id="linear-gradient-8" x1="91.98" y1="101.94" x2="87.08" y2="102.7" gradientTransform="matrix(-1, 0, 0, 1, 207.45, 0)" xlink:href="#linear-gradient-2"/><linearGradient id="linear-gradient-9" x1="53.65" y1="96.09" x2="98.79" y2="96.09" xlink:href="#linear-gradient-2"/></defs><title>banner-illustration</title><g class="cls-1"><g id="Layer_2" data-name="Layer 2"><g id="OBJECTS"><polyline class="cls-2" points="132.91 180.89 0 260.32 82.58 308.08 187.54 266 133.35 184.53"/><path class="cls-3" d="M201,238.27h0v-6.43l-4.62,2.32-8.11-4.68a10.59,10.59,0,0,0-9.56,0l-81.5,47.06-4.65-2.27v6.35h0c-.11,1.07.54,2.17,2,3l10.76,6.22a10.59,10.59,0,0,0,9.56,0L199,241.21A3.22,3.22,0,0,0,201,238.27Z"/><path class="cls-4" d="M97.17,276.54l-4.65-2.27v6.35h0c-.11,1.07.54,2.17,2,3l10.76,6.22A9.72,9.72,0,0,0,109.9,291V269.19Z"/><path class="cls-5" d="M105.25,283a10.59,10.59,0,0,0,9.56,0L199,234.43c2.64-1.53,2.64-4,0-5.52l-10.76-6.21a10.53,10.53,0,0,0-9.56,0L94.49,271.29c-2.64,1.53-2.64,4,0,5.53Z"/><polygon class="cls-4" points="130.75 266.25 124.88 262.93 124.88 232.91 162.73 211.06 130.75 266.25"/><polygon class="cls-6" points="168.6 244.4 130.75 266.25 130.75 236.23 168.6 214.38 168.6 244.4"/><path class="cls-6" d="M231,55.82l-5.51-3.14a1.23,1.23,0,0,0-.37-.21h0a2.32,2.32,0,0,0-2,.32L64.68,144.24a6.81,6.81,0,0,0-3.07,5.33V271.23a2.17,2.17,0,0,0,.89,2,1.45,1.45,0,0,0,.26.11l5.48,3.15,1.14-5.92-1.64.68,155.36-89.7a6.81,6.81,0,0,0,3.08-5.33V59.14Z"/><path class="cls-5" d="M225.44,52.68a1.23,1.23,0,0,0-.37-.21h0a2.32,2.32,0,0,0-2,.32L64.68,144.24a6.09,6.09,0,0,0-1.94,1.94L168.65,213l54.45-31.44a6.81,6.81,0,0,0,3.08-5.33V59.14L231,55.82Z"/><path class="cls-3" d="M231.87,179.46a6.82,6.82,0,0,1-3.07,5.33L70.38,276.25c-1.7,1-3.08.19-3.08-1.77V152.82a6.82,6.82,0,0,1,3.08-5.33L228.8,56c1.69-1,3.07-.19,3.07,1.78Z"/><polygon class="cls-7" points="228.88 170.55 70.29 262.12 70.29 152.61 228.88 61.04 228.88 170.55"/><polygon class="cls-8" points="227.33 61.94 227.33 169.34 70.29 260.01 70.29 262.12 228.88 170.55 228.88 61.04 227.33 61.94"/><polygon class="cls-9" points="214.04 87.95 150.82 124.45 150.82 120.83 214.04 84.33 214.04 87.95"/><polygon class="cls-9" points="214.04 94.42 115.32 151.42 115.32 147.8 214.04 90.8 214.04 94.42"/><polygon class="cls-9" points="214.04 100.89 115.32 157.89 115.32 154.27 214.04 97.27 214.04 100.89"/><polygon class="cls-9" points="214.04 107.36 115.32 164.36 115.32 160.74 214.04 103.74 214.04 107.36"/><polygon class="cls-9" points="214.04 113.83 115.32 170.83 115.32 167.21 214.04 110.21 214.04 113.83"/><polygon class="cls-9" points="214.04 120.3 115.32 177.3 115.32 173.68 214.04 116.68 214.04 120.3"/><polygon class="cls-9" points="214.04 133.24 150.82 169.74 150.82 166.12 214.04 129.62 214.04 133.24"/><polygon class="cls-9" points="214.04 139.71 115.32 196.71 115.32 193.09 214.04 136.09 214.04 139.71"/><polygon class="cls-9" points="214.04 146.18 115.32 203.18 115.32 199.56 214.04 142.56 214.04 146.18"/><polygon class="cls-9" points="214.04 152.65 115.32 209.65 115.32 206.03 214.04 149.03 214.04 152.65"/><polygon class="cls-9" points="214.04 159.12 115.32 216.12 115.32 212.5 214.04 155.5 214.04 159.12"/><polygon class="cls-9" points="162.66 195.26 115.32 222.59 115.32 218.97 162.66 191.63 162.66 195.26"/><polygon class="cls-10" points="367.04 273.57 282.09 224.53 265.67 108.81 282.09 99.42 367.04 148.47 367.04 273.57"/><polygon class="cls-8" points="362.81 271.39 348.56 278.67 266.04 113.04 281.72 104.09 362.81 150.9 362.81 271.39"/><polygon class="cls-11" points="350.62 282.96 265.67 233.91 265.67 108.81 350.62 157.85 350.62 282.96"/><polygon class="cls-12" points="347.9 284.64 262.95 235.6 246.53 119.88 262.95 110.5 347.9 159.54 347.9 284.64"/><polygon class="cls-8" points="343.67 282.47 329.42 289.75 246.9 124.11 262.58 115.16 343.67 161.98 343.67 282.47"/><polygon class="cls-3" points="331.48 294.03 246.53 244.99 246.53 119.88 331.48 168.92 331.48 294.03"/><polygon class="cls-13" points="246.53 244.99 246.53 119.88 331.48 168.92 246.53 244.99"/><polygon class="cls-14" points="268.21 125.23 260.99 121.14 260.99 105.77 264.6 110.9 268.21 108.53 268.21 125.23"/><polygon class="cls-15" points="192.55 353.06 124.98 314.05 95.48 298.11 200.97 239.52 320.98 291.63 214.73 353.07 192.55 353.06"/><polygon class="cls-10" points="213.83 351.97 135.15 306.54 135.15 288.91 240.7 245.61 319.37 291.03 213.83 351.97"/><polygon class="cls-16" points="240.7 239.94 139.06 287.1 139.06 303.14 213.83 346.3 319.37 285.36 240.7 239.94"/><polygon class="cls-17" points="240.7 235.84 223.85 243.66 223.85 294.15 139.06 294.15 139.06 299.04 213.83 342.2 319.37 281.26 240.7 235.84"/><polygon class="cls-8" points="240.7 232.08 223.85 239.9 223.85 294.15 139.06 294.15 139.06 295.28 213.83 338.45 319.37 277.51 240.7 232.08"/><polygon class="cls-11" points="213.83 334.34 135.15 288.91 240.7 227.97 319.37 273.39 213.83 334.34"/><polygon class="cls-12" points="214.08 328.04 139.32 284.88 139.32 268.13 239.61 226.98 314.36 270.14 214.08 328.04"/><polygon class="cls-16" points="239.61 221.6 143.04 266.4 143.04 281.64 214.08 322.65 314.36 264.75 239.61 221.6"/><polygon class="cls-17" points="239.61 217.7 223.6 225.13 223.6 273.11 143.04 273.11 143.04 277.74 214.08 318.76 314.36 260.86 239.61 217.7"/><polygon class="cls-8" points="239.61 214.13 223.6 221.56 223.6 273.11 143.04 273.11 143.04 274.18 214.08 315.19 314.36 257.29 239.61 214.13"/><polygon class="cls-3" points="214.08 311.28 139.32 268.13 239.61 210.23 314.36 253.38 214.08 311.28"/><polygon class="cls-14" points="214.64 306.98 143.19 265.72 143.19 249.71 239.04 210.38 310.5 251.63 214.64 306.98"/><polygon class="cls-16" points="239.04 205.23 146.74 248.06 146.74 262.63 214.64 301.83 310.5 246.48 239.04 205.23"/><polygon class="cls-17" points="239.04 201.51 223.74 208.61 223.74 254.47 146.74 254.47 146.74 258.9 214.64 298.11 310.5 242.76 239.04 201.51"/><polygon class="cls-8" points="239.04 198.1 223.74 205.2 223.74 254.47 146.74 254.47 146.74 255.49 214.64 294.69 310.5 239.35 239.04 198.1"/><polygon class="cls-18" points="214.64 290.96 143.19 249.71 239.04 194.36 310.5 235.62 214.64 290.96"/><polygon class="cls-19" points="143.19 249.71 199.92 282.46 247.26 255.13 190.52 222.38 143.19 249.71"/><polygon class="cls-19" points="185.98 225 239.04 194.36 277.97 216.84 185.98 225"/><path class="cls-20" d="M329.4,118.85c-2.47-3.61.51-28.62-3-30.85a8.66,8.66,0,0,0-.06-1.82c.85-.19-16.94-21.06-20.5-17.8s-.78,8.78-.78,8.78.21.93-1.2,1.53a5,5,0,0,0,2.27.3c0,.21.05.43.08.65h0a36.86,36.86,0,0,0,.82,4c.39,1.53.73,2.93,1,4.22-.15.15-.3.29-.45.45-.05,0-.06.06-.06.06s-.17.22-.26.33-.38.45-.56.7c-6.35,8.21-4.27,17.85-8.19,21.09a30.86,30.86,0,0,1-8,5l-5.14,1.2-7.26-13.83.15,4.29-.15-.2.44,11.12h0c-1.85.18-3.29,6-.23,7.78.19.11,6.73.58,6.9.63l1,7.39-.3,7.14c-4,3.63-7.47,7.71-8.41,11.54-2.55,10.47-1.63,34.71-1.63,34.71l.1.18c-1.26,1-5.78,4.5-6.88,6.08a1.81,1.81,0,0,0-.23.49h0a1.33,1.33,0,0,0,.67,1.6h0a1.08,1.08,0,0,0,.24.12.52.52,0,0,0,.13.06l.23.08.21.06.23,0a2.23,2.23,0,0,0,.27,0l.24,0h.58l.36,0,.27,0,.41-.09.28-.06.46-.14.28-.09.53-.21.26-.1c.27-.12.55-.25.84-.4,4.75-2.52,5.77-3.18,6.69-3.71a1.72,1.72,0,0,0,.38-.29l.06-.08a.94.94,0,0,0,.2-.35v0a1.84,1.84,0,0,0,.07-.42v-.09a4.41,4.41,0,0,0,0-.6l.21-.09,4-35.49s6.44,10.58,11.17,8.67c-3,3.74-2.33-1-2.88,2.94-1.48,10.66-1.5,33.87-1.5,33.87l.15.16c-1.54,1.2-5.58,4.39-6.61,5.88a1.75,1.75,0,0,0-.23.48h0a1.35,1.35,0,0,0,.67,1.61h0l.24.12.13.06.23.07.21.06.23,0,.27,0h.56l.26,0,.36,0,.27,0,.41-.08.28-.07.46-.13.28-.1.53-.2.26-.11c.28-.12.55-.25.84-.4,4.76-2.51,5.77-3.17,6.69-3.7a1.48,1.48,0,0,0,.38-.3.46.46,0,0,1,.07-.07,1.24,1.24,0,0,0,.19-.36h0a1.85,1.85,0,0,0,.06-.42v-.09a10.24,10.24,0,0,0-.13-1.39.59.59,0,0,0-.25-.38c.24-.18,4.84-45.71,4.84-45.71s18.9-8.46,21.5-9.88C339.3,137.5,329.4,118.85,329.4,118.85Z"/><path class="cls-21" d="M302.06,76.9s.11-1,2.85,5.07-3.84,25.51-5.4,27.64-21.15,8.13-25.45,1.48c2.68-1.38.09-3.36.62-6.47,8,2.8,15.94-3.57,18.38-5.6C297.14,95.64,294.68,85.32,302.06,76.9Z"/><path class="cls-8" d="M270.9,175.68s-5.95,4.49-7.22,6.34,1.49,3.84,6.25,1.32,5.77-3.17,6.7-3.7.75-1.27.57-2.64S270.9,175.68,270.9,175.68Z"/><path class="cls-22" d="M276.63,178.79c-.93.53-1.94,1.19-6.7,3.7-3.57,1.89-6,1.24-6.49,0-.53,1.67,2.15,3.13,6.49.83,4.76-2.51,5.77-3.17,6.7-3.7.71-.4.77-.93.68-1.77A1.21,1.21,0,0,1,276.63,178.79Z"/><path class="cls-23" d="M321.81,118.55s-.22,13.44-12.09,16.36a146.74,146.74,0,0,0-24.42,9l-7.79,33.82a6.1,6.1,0,0,1-3.35.53,5.1,5.1,0,0,1-3.7-2.47s-.92-24.25,1.63-34.71S296,118.27,296,118.27Z"/><path class="cls-8" d="M289.07,187.38s-5.94,4.5-7.22,6.35,1.5,3.83,6.26,1.32,5.77-3.17,6.69-3.7.75-1.28.57-2.65S289.07,187.38,289.07,187.38Z"/><path class="cls-22" d="M294.8,190.5c-.92.53-1.94,1.19-6.69,3.7-3.58,1.88-6,1.23-6.49,0-.54,1.68,2.14,3.13,6.49.84,4.75-2.51,5.77-3.17,6.69-3.7.71-.41.77-.94.68-1.78A1.24,1.24,0,0,1,294.8,190.5Z"/><path class="cls-24" d="M333.56,126.48s1.15,13.4-10.36,17.51a146.36,146.36,0,0,0-23.38,11.4L295.5,188a4.81,4.81,0,0,1-3.46,1.28,5.2,5.2,0,0,1-3.74-1.6s-2.67-24.69-1.19-35.36,17.66-23.22,17.66-23.22Z"/><path class="cls-25" d="M294.34,119.38s-1.28-40.14,11-44.83S328.78,81,333.56,91.83s3.53,29.62,0,36.61C316.76,140,293.86,124.94,294.34,119.38Z"/><path class="cls-26" d="M333.56,91.83c-4.78-10.81-16-22-28.25-17.28a7.34,7.34,0,0,0-1.16.57c9,1.15,16.68,9.81,20.43,18.26,4.78,10.81,3.52,29.62,0,36.61a24,24,0,0,1-5.19,2.69,24.39,24.39,0,0,0,14.17-4.24C337.09,121.45,338.35,102.64,333.56,91.83Z"/><path class="cls-27" d="M301.86,56.65s-3.06,4.89-.32,15.52c2.23,8.6,2.56,13.36,6.15,13.72S322,83.63,320.86,74.67c1.07-.23,3.26-4.32,1.53-7.58s-2.94.3-2.94.3.07-7.1-4.95-9.69S301.86,56.65,301.86,56.65Z"/><path class="cls-23" d="M313.66,65.18c0-.41-3.83,5-10,3.28a3.75,3.75,0,0,0,2.59-2.13,5.4,5.4,0,0,1-5.57,1.81A8.12,8.12,0,0,0,303,66.85a6.07,6.07,0,0,1-4.57.34c1.41-.6,1.19-1.54,1.19-1.54s-1.24,1.25-3.67-.86c1-.13.89-4.65,4.45-7.91s6.46-4,11.23-3.22A4.41,4.41,0,0,0,307.49,52c1.91-1.06,5.94.85,7.13,2.61,3.7-1.42,10.69,1,8.38,14.55,0-.34-.36-2.54-1.66-3s-2.42,2.15-2.12,2.81a28.64,28.64,0,0,1,.44,4.5l-1.69.88s.53-3.34-.68-4.35S313.89,70.33,313.66,65.18Z"/><polygon class="cls-8" points="272.69 95.45 279.95 105.19 303.39 99.73 302.04 130.03 280.72 129.77 273.7 121.22 272.69 95.45"/><polygon class="cls-7" points="272.69 91.36 279.95 105.19 280.72 129.77 273.7 121.22 272.69 91.36"/><path class="cls-28" d="M308.18,116.14s-.72,1.11-2.25,0-2.11-3-3.05-3.7c-.12,2.42,0,4.11-3,4s-4.94-.46-6.64-.35.33,7.65,9.09,7.82c4.83-.3,6.89-3,6.89-3Z"/><path class="cls-29" d="M273.12,106.57s1.61,3.3,2.61,3.68.23,5.87-2.83,4.1S271.28,106.74,273.12,106.57Z"/><path class="cls-30" d="M323.76,90.57s.51-8.26,6.32-5,12,22.85,12,25.49-26.9,15.75-34.3,12.93a10.41,10.41,0,0,0-.06-9c8.1-2.47,18.5-5.64,20.26-8.28S322.77,101.72,323.76,90.57Z"/><polygon class="cls-3" points="159.17 383.01 37.93 313.01 37.93 308.44 198.62 355.66 198.62 360.23 159.17 383.01"/><polygon class="cls-6" points="159.17 383.01 37.93 313.01 37.93 308.44 159.18 377.98 159.18 382.56 159.17 383.01"/><polygon class="cls-5" points="159.17 378.44 37.93 308.44 77.38 285.66 198.62 355.66 159.17 378.44"/><polygon class="cls-31" points="80.9 298.48 72.91 293.86 72.91 292.88 86.05 294.52 86.05 295.5 80.9 298.48"/><polygon class="cls-32" points="80.9 297.5 72.91 292.88 78.06 289.91 86.05 294.52 80.9 297.5"/><polygon class="cls-31" points="89.45 303.42 81.46 298.81 81.46 297.83 94.61 299.47 94.61 300.45 89.45 303.42"/><polygon class="cls-32" points="89.45 302.44 81.46 297.83 86.62 294.85 94.61 299.47 89.45 302.44"/><polygon class="cls-31" points="98.01 308.37 90.02 303.75 90.02 302.77 103.17 304.41 103.17 305.39 98.01 308.37"/><polygon class="cls-32" points="98.01 307.39 90.02 302.77 95.17 299.8 103.17 304.41 98.01 307.39"/><polygon class="cls-31" points="106.56 313.32 98.57 308.7 98.57 307.72 111.72 309.36 111.72 310.34 106.56 313.32"/><polygon class="cls-32" points="106.56 312.34 98.57 307.72 103.73 304.75 111.72 309.36 106.56 312.34"/><polygon class="cls-31" points="115.12 318.26 107.13 313.65 107.13 312.67 120.28 314.31 120.28 315.29 115.12 318.26"/><polygon class="cls-32" points="115.12 317.28 107.13 312.67 112.28 309.69 120.28 314.31 115.12 317.28"/><polygon class="cls-31" points="123.68 323.21 115.68 318.59 115.68 317.61 128.83 319.25 128.83 320.23 123.68 323.21"/><polygon class="cls-32" points="123.68 322.23 115.68 317.61 120.84 314.64 128.83 319.25 123.68 322.23"/><polygon class="cls-31" points="132.23 328.15 124.24 323.54 124.24 322.56 137.39 324.2 137.39 325.18 132.23 328.15"/><polygon class="cls-32" points="132.23 327.18 124.24 322.56 129.4 319.58 137.39 324.2 132.23 327.18"/><polygon class="cls-31" points="140.79 333.1 132.79 328.49 132.79 327.51 145.94 329.15 145.94 330.13 140.79 333.1"/><polygon class="cls-32" points="140.79 332.12 132.79 327.51 137.95 324.53 145.94 329.15 140.79 332.12"/><polygon class="cls-31" points="149.34 338.05 141.35 333.44 141.35 332.46 154.5 334.09 154.5 335.07 149.34 338.05"/><polygon class="cls-32" points="149.34 337.07 141.35 332.46 146.5 329.48 154.5 334.09 149.34 337.07"/><polygon class="cls-31" points="157.9 343 149.91 338.38 149.91 337.4 163.06 339.04 163.06 340.02 157.9 343"/><polygon class="cls-32" points="157.9 342.02 149.91 337.4 155.06 334.42 163.06 339.04 157.9 342.02"/><polygon class="cls-31" points="166.46 347.94 158.46 343.32 158.46 342.35 171.61 343.99 171.61 344.96 166.46 347.94"/><polygon class="cls-32" points="166.46 346.96 158.46 342.35 163.62 339.37 171.61 343.99 166.46 346.96"/><polygon class="cls-31" points="175.01 352.89 167.02 348.27 167.02 347.3 180.17 348.94 180.17 349.91 175.01 352.89"/><polygon class="cls-32" points="175.01 351.91 167.02 347.3 172.17 344.32 180.17 348.94 175.01 351.91"/><polygon class="cls-31" points="183.57 357.84 175.57 353.22 175.57 352.24 188.72 353.88 188.72 354.86 183.57 357.84"/><polygon class="cls-32" points="183.57 356.86 175.57 352.24 180.73 349.26 188.72 353.88 183.57 356.86"/><polygon class="cls-31" points="78.89 305.11 66.24 297.7 66.24 296.72 84.04 301.15 84.04 302.13 78.89 305.11"/><polygon class="cls-32" points="78.89 304.13 66.24 296.72 71.4 293.75 84.04 301.15 78.89 304.13"/><polygon class="cls-31" points="87.44 310.05 79.45 305.44 79.45 304.46 92.6 306.1 92.6 307.07 87.44 310.05"/><polygon class="cls-32" points="87.44 309.07 79.45 304.46 84.6 301.48 92.6 306.1 87.44 309.07"/><polygon class="cls-31" points="96 315 88 310.38 88 309.4 101.15 311.05 101.15 312.02 96 315"/><polygon class="cls-32" points="96 314.02 88 309.4 93.16 306.43 101.15 311.05 96 314.02"/><polygon class="cls-31" points="104.55 319.94 96.56 315.33 96.56 314.35 109.71 315.99 109.71 316.97 104.55 319.94"/><polygon class="cls-32" points="104.55 318.96 96.56 314.35 101.72 311.38 109.71 315.99 104.55 318.96"/><polygon class="cls-31" points="113.11 324.89 105.12 320.27 105.12 319.3 118.27 320.94 118.27 321.92 113.11 324.89"/><polygon class="cls-32" points="113.11 323.91 105.12 319.3 110.27 316.32 118.27 320.94 113.11 323.91"/><polygon class="cls-31" points="121.67 329.84 113.67 325.22 113.67 324.24 126.82 325.88 126.82 326.86 121.67 329.84"/><polygon class="cls-32" points="121.67 328.86 113.67 324.24 118.83 321.27 126.82 325.88 121.67 328.86"/><polygon class="cls-31" points="130.22 334.78 122.23 330.17 122.23 329.19 135.38 330.83 135.38 331.81 130.22 334.78"/><polygon class="cls-32" points="130.22 333.81 122.23 329.19 127.38 326.21 135.38 330.83 130.22 333.81"/><polygon class="cls-31" points="138.78 339.73 130.78 335.12 130.78 334.14 143.93 335.78 143.93 336.75 138.78 339.73"/><polygon class="cls-32" points="138.78 338.75 130.78 334.14 135.94 331.16 143.93 335.78 138.78 338.75"/><polygon class="cls-31" points="147.33 344.68 139.34 340.06 139.34 339.08 152.49 340.72 152.49 341.7 147.33 344.68"/><polygon class="cls-32" points="147.33 343.7 139.34 339.08 144.49 336.11 152.49 340.72 147.33 343.7"/><polygon class="cls-31" points="155.89 349.63 147.89 345.01 147.89 344.03 161.04 345.67 161.04 346.65 155.89 349.63"/><polygon class="cls-32" points="155.89 348.65 147.89 344.03 153.05 341.06 161.04 345.67 155.89 348.65"/><polygon class="cls-31" points="164.44 354.57 156.45 349.95 156.45 348.98 169.6 350.62 169.6 351.6 164.44 354.57"/><polygon class="cls-32" points="164.44 353.59 156.45 348.98 161.6 346 169.6 350.62 164.44 353.59"/><polygon class="cls-31" points="176.87 361.79 165 354.9 165 353.92 182.02 357.84 182.02 358.81 176.87 361.79"/><polygon class="cls-32" points="176.87 360.81 165 353.92 170.16 350.95 182.02 357.84 176.87 360.81"/><polygon class="cls-31" points="68.98 307.16 59.48 301.61 59.48 300.64 73.46 302.81 73.46 303.78 68.98 307.16"/><polygon class="cls-32" points="69.28 306.34 59.48 300.64 64.63 297.66 74.44 303.37 69.28 306.34"/><polygon class="cls-31" points="76.86 311.7 68.86 307.09 68.86 306.11 82.02 307.75 82.02 308.73 76.86 311.7"/><polygon class="cls-32" points="76.86 310.73 68.86 306.11 74.02 303.13 82.02 307.75 76.86 310.73"/><polygon class="cls-31" points="85.42 316.65 77.42 312.04 77.42 311.06 90.57 312.7 90.57 313.67 85.42 316.65"/><polygon class="cls-32" points="85.42 315.67 77.42 311.06 82.58 308.08 90.57 312.7 85.42 315.67"/><polygon class="cls-31" points="93.97 321.6 85.98 316.98 85.98 316.01 99.13 317.64 99.13 318.62 93.97 321.6"/><polygon class="cls-32" points="93.97 320.62 85.98 316.01 91.13 313.03 99.13 317.64 93.97 320.62"/><polygon class="cls-31" points="102.52 326.55 94.53 321.93 94.53 320.95 107.68 322.59 107.68 323.57 102.52 326.55"/><polygon class="cls-32" points="102.52 325.56 94.53 320.95 99.69 317.98 107.68 322.59 102.52 325.56"/><polygon class="cls-31" points="111.08 331.49 103.09 326.87 103.09 325.9 116.24 327.54 116.24 328.51 111.08 331.49"/><polygon class="cls-32" points="111.08 330.51 103.09 325.9 108.24 322.92 116.24 327.54 111.08 330.51"/><polygon class="cls-31" points="119.64 336.44 111.64 331.82 111.64 330.84 124.79 332.48 124.79 333.46 119.64 336.44"/><polygon class="cls-32" points="119.64 335.46 111.64 330.84 116.8 327.87 124.79 332.48 119.64 335.46"/><polygon class="cls-31" points="128.19 341.38 120.2 336.77 120.2 335.79 133.35 337.43 133.35 338.41 128.19 341.38"/><polygon class="cls-32" points="128.19 340.41 120.2 335.79 125.35 332.81 133.35 337.43 128.19 340.41"/><polygon class="cls-31" points="136.75 346.33 128.75 341.72 128.75 340.74 141.9 342.37 141.9 343.36 136.75 346.33"/><polygon class="cls-32" points="136.75 345.35 128.75 340.74 133.91 337.76 141.9 342.37 136.75 345.35"/><polygon class="cls-31" points="145.31 351.28 137.31 346.66 137.31 345.68 150.46 347.32 150.46 348.3 145.31 351.28"/><polygon class="cls-32" points="145.31 350.3 137.31 345.68 142.47 342.71 150.46 347.32 145.31 350.3"/><polygon class="cls-31" points="153.86 356.22 145.87 351.61 145.87 350.63 159.01 352.27 159.01 353.25 153.86 356.22"/><polygon class="cls-32" points="153.86 355.25 145.87 350.63 151.02 347.65 159.01 352.27 153.86 355.25"/><polygon class="cls-31" points="162.41 361.17 154.42 356.55 154.42 355.58 167.57 357.21 167.57 358.19 162.41 361.17"/><polygon class="cls-32" points="162.41 360.19 154.42 355.58 159.58 352.6 167.57 357.21 162.41 360.19"/><polygon class="cls-31" points="170.1 365.61 162.97 361.5 162.97 360.52 175.25 361.65 175.25 362.63 170.1 365.61"/><polygon class="cls-32" points="170.1 364.63 162.97 360.52 168.13 357.55 175.25 361.65 170.1 364.63"/><polygon class="cls-31" points="66.29 313.39 52.66 305.53 52.66 304.55 71.45 309.43 71.45 310.41 66.29 313.39"/><polygon class="cls-32" points="66.29 312.41 52.66 304.55 57.81 301.57 71.45 309.43 66.29 312.41"/><polygon class="cls-31" points="74.85 318.33 66.85 313.72 66.85 312.74 80 314.38 80 315.36 74.85 318.33"/><polygon class="cls-32" points="74.85 317.36 66.85 312.74 72.01 309.76 80 314.38 74.85 317.36"/><polygon class="cls-31" points="83.4 323.28 75.41 318.66 75.41 317.69 88.56 319.32 88.56 320.3 83.4 323.28"/><polygon class="cls-32" points="83.4 322.3 75.41 317.69 80.56 314.71 88.56 319.32 83.4 322.3"/><polygon class="cls-31" points="91.96 328.23 83.96 323.61 83.96 322.63 97.11 324.27 97.11 325.25 91.96 328.23"/><polygon class="cls-32" points="91.96 327.25 83.96 322.63 89.12 319.65 97.11 324.27 91.96 327.25"/><polygon class="cls-31" points="100.51 333.17 92.52 328.56 92.52 327.58 105.67 329.22 105.67 330.2 100.51 333.17"/><polygon class="cls-32" points="100.51 332.19 92.52 327.58 97.67 324.6 105.67 329.22 100.51 332.19"/><polygon class="cls-31" points="109.07 338.12 101.07 333.51 101.07 332.52 114.23 334.16 114.23 335.14 109.07 338.12"/><polygon class="cls-32" points="109.07 337.14 101.07 332.52 106.23 329.55 114.23 334.16 109.07 337.14"/><polygon class="cls-31" points="117.63 343.06 109.63 338.45 109.63 337.48 122.78 339.11 122.78 340.09 117.63 343.06"/><polygon class="cls-32" points="117.63 342.09 109.63 337.48 114.79 334.5 122.78 339.11 117.63 342.09"/><polygon class="cls-31" points="126.18 348.01 118.19 343.4 118.19 342.42 131.34 344.06 131.34 345.04 126.18 348.01"/><polygon class="cls-32" points="126.18 347.04 118.19 342.42 123.34 339.44 131.34 344.06 126.18 347.04"/><polygon class="cls-31" points="134.74 352.96 126.74 348.34 126.74 347.37 139.89 349.01 139.89 349.98 134.74 352.96"/><polygon class="cls-32" points="134.74 351.98 126.74 347.37 131.9 344.39 139.89 349.01 134.74 351.98"/><polygon class="cls-31" points="143.29 357.91 135.3 353.29 135.3 352.31 148.45 353.95 148.45 354.93 143.29 357.91"/><polygon class="cls-32" points="143.29 356.93 135.3 352.31 140.45 349.33 148.45 353.95 143.29 356.93"/><polygon class="cls-31" points="151.85 362.85 143.85 358.24 143.85 357.26 157 358.9 157 359.88 151.85 362.85"/><polygon class="cls-32" points="151.85 361.88 143.85 357.26 149.01 354.28 157 358.9 151.85 361.88"/><polygon class="cls-31" points="163.42 369.45 152.41 363.19 152.41 362.2 168.57 365.5 168.57 366.48 163.42 369.45"/><polygon class="cls-32" points="163.42 368.48 152.41 362.2 157.56 359.23 168.57 365.5 163.42 368.48"/><polygon class="cls-31" points="55.7 315.04 46.02 309.36 46.02 308.38 60.86 311.08 60.86 312.06 55.7 315.04"/><polygon class="cls-32" points="55.7 314.06 46.02 308.38 51.17 305.41 60.86 311.08 55.7 314.06"/><polygon class="cls-31" points="64.26 319.99 56.27 315.37 56.27 314.39 69.42 316.03 69.42 317.01 64.26 319.99"/><polygon class="cls-32" points="64.26 319.01 56.27 314.39 61.42 311.42 69.42 316.03 64.26 319.01"/><polygon class="cls-31" points="72.82 324.93 64.83 320.32 64.83 319.34 77.97 320.98 77.97 321.96 72.82 324.93"/><polygon class="cls-32" points="72.82 323.95 64.83 319.34 69.98 316.36 77.97 320.98 72.82 323.95"/><polygon class="cls-31" points="123.99 354.59 73.38 325.26 73.38 324.29 129.14 350.63 129.14 351.61 123.99 354.59"/><polygon class="cls-32" points="123.99 353.61 73.38 324.29 78.54 321.31 129.14 350.63 123.99 353.61"/><polygon class="cls-31" points="132.71 359.56 124.71 354.94 124.71 353.97 137.86 355.61 137.86 356.58 132.71 359.56"/><polygon class="cls-32" points="132.71 358.58 124.71 353.97 129.87 350.99 137.86 355.61 132.71 358.58"/><polygon class="cls-31" points="141.26 364.51 133.27 359.89 133.27 358.91 146.42 360.55 146.42 361.53 141.26 364.51"/><polygon class="cls-32" points="141.26 363.53 133.27 358.91 138.43 355.94 146.42 360.55 141.26 363.53"/><polygon class="cls-31" points="149.82 369.45 141.82 364.84 141.82 363.86 154.97 365.5 154.97 366.48 149.82 369.45"/><polygon class="cls-32" points="149.82 368.48 141.82 363.86 146.98 360.88 154.97 365.5 149.82 368.48"/><polygon class="cls-31" points="156.71 373.41 150.38 369.78 150.38 368.81 161.86 369.45 161.86 370.43 156.71 373.41"/><polygon class="cls-32" points="156.71 372.43 150.38 368.81 155.54 365.83 161.86 369.45 156.71 372.43"/><polygon class="cls-15" points="251.05 270.02 251.05 330.48 302.42 348.27 315.24 338.45 251.05 270.02"/><polygon class="cls-5" points="251.05 270.02 273.29 257.13 296.88 274.47 274.65 287.35 251.05 270.02"/><polygon class="cls-3" points="274.65 293.76 296.88 280.88 296.88 274.47 274.65 287.35 274.65 293.76"/><polygon class="cls-5" points="274.65 293.76 296.88 280.88 302.44 284.08 280.2 296.97 274.65 293.76"/><polygon class="cls-3" points="280.2 303.38 302.44 290.5 302.44 284.08 280.2 296.97 280.2 303.38"/><polygon class="cls-5" points="280.2 303.39 302.44 290.51 307.99 293.72 285.76 306.6 280.2 303.39"/><polygon class="cls-3" points="285.75 313.02 307.99 300.13 307.99 293.72 285.76 306.6 285.75 313.02"/><polygon class="cls-5" points="285.75 313.03 307.99 300.14 313.54 303.35 291.31 316.24 285.75 313.03"/><polygon class="cls-3" points="291.31 322.65 313.54 309.77 313.54 303.35 291.31 316.24 291.31 322.65"/><polygon class="cls-5" points="291.31 322.66 313.54 309.78 319.1 312.99 296.87 325.87 291.31 322.66"/><polygon class="cls-3" points="296.86 332.28 319.1 319.4 319.1 312.99 296.87 325.87 296.86 332.28"/><polygon class="cls-5" points="296.86 332.29 319.1 319.41 324.65 322.62 302.42 335.5 296.86 332.29"/><polygon class="cls-3" points="302.42 341.92 324.65 329.03 324.65 322.62 302.42 335.5 302.42 341.92"/><polygon class="cls-5" points="302.42 341.92 324.65 329.04 330.2 332.25 307.97 345.13 302.42 341.92"/><polygon class="cls-3" points="307.97 351.55 330.2 338.66 330.2 332.25 307.97 345.13 307.97 351.55"/><polygon class="cls-6" points="296.86 332.24 296.86 325.83 291.31 322.62 291.31 316.16 285.76 313 285.76 306.59 280.2 303.38 280.2 296.97 274.65 293.76 274.65 287.35 251.05 270.02 251.05 270.02 302.42 348.27 307.99 351.48 307.99 345.07 302.42 341.92 302.42 335.45 296.86 332.24"/><path class="cls-33" d="M160.21,217.65v27.29c0,5.61,3.71,11.23,11.13,15.51,14.83,8.57,38.89,8.57,53.72,0,7.42-4.28,11.13-9.9,11.13-15.51V217.65Z"/><polygon class="cls-34" points="196.74 253.22 131.63 215.62 131.63 213.82 261.85 213.82 261.85 215.62 196.74 253.22"/><polygon class="cls-24" points="196.74 251.41 131.63 213.82 196.74 176.23 261.85 213.82 196.74 251.41"/><polygon class="cls-35" points="232.72 255.13 230.47 255.13 230.47 231.98 196.23 214.83 197.24 212.81 232.72 230.59 232.72 255.13"/><path class="cls-35" d="M201.39,214.23c0,1.24-1.66,2.25-3.71,2.25s-3.72-1-3.72-2.25,1.66-2.25,3.72-2.25S201.39,213,201.39,214.23Z"/><path class="cls-36" d="M234.28,265.49V254a2.62,2.62,0,1,0-5.23,0v11.46Z"/><path class="cls-15" d="M67,391.77s11.51-.26,25.65-13.33S118,359.23,118,359.23v-4L157.62,332l9.95-6.63-.29-61.74L152,277.51,151,315.67l-47.83,31.16Z"/><path class="cls-37" d="M87.47,377.89c-2.55,3.62-16.74,16.6-20.93,13.66h0c-4.18-2.95,3.21-20.69,5.76-24.32l78.52-111.76c2.55-3.63,8-4.18,12.2-1.24h0c4.19,2.94,5.52,8.27,3,11.9Z"/><path class="cls-38" d="M163,254.23a10.75,10.75,0,0,0-2.68-1.36,8,8,0,0,1,.18,9L82,373.63c-2,2.79-10.8,11.1-16.68,13.45-.14,2.1.19,3.74,1.22,4.47,4.19,2.94,18.38-10,20.93-13.66L166,266.13C168.54,262.5,167.21,257.17,163,254.23Z"/><path class="cls-39" d="M75,363.33l-2.74,3.9c-2.55,3.63-9.94,21.37-5.76,24.32s18.38-10,20.93-13.66l2.74-3.9Z"/><path class="cls-40" d="M85.59,370.74l-2,2.82c-2.55,3.63-13.76,19.74-18,16.8a2.72,2.72,0,0,0,.88,1.19c4.19,2.94,18.38-10,20.93-13.66l2.74-3.9Z"/><polygon class="cls-24" points="130.54 319.64 118.74 311.35 112.5 306.96 146.76 258.2 164.8 270.87 130.54 319.64"/><polygon class="cls-41" points="157.02 265.41 122.81 314.1 112.55 306.89 112.5 306.96 118.74 311.35 130.54 319.64 164.8 270.87 157.02 265.41"/><rect class="cls-42" x="151.57" y="257.05" width="3.45" height="22.04" transform="translate(-154.18 239.4) rotate(-54.91)"/><path class="cls-39" d="M160.81,268.07s8.79,3.41,2.5,13.46-21.67,26.26-23.18,32.57-7.51,5.64-7.68,1.06,5.4-9.5,10.53-16.29,20.79-26,14.88-32.87Z"/><polygon class="cls-8" points="307.12 0 238.25 26.95 267.95 30.49 307.12 0"/><polygon class="cls-5" points="267.46 30.43 272.06 43.28 307.12 0 267.46 30.43"/><polygon class="cls-3" points="277.31 33.39 272.06 43.28 307.12 0 277.31 33.39"/><polygon class="cls-8" points="307.12 0 297.85 45.4 277.31 33.39 307.12 0"/><path class="cls-6" d="M265.64,43.73l-1.52-1.29,2.59-3.06,1.52,1.3Z"/><path class="cls-6" d="M288.52,261.52c-1,0-2.06,0-3.09,0l0-2c2.67,0,5.3,0,8,0l0,2C291.82,261.5,290.15,261.52,288.52,261.52Zm-11.12-.33c-2.33-.14-4.73-.32-7.14-.55l-.87-.08.2-2,.86.08c2.38.23,4.76.41,7.07.55Zm24.09-.15-.15-2c2.67-.2,5.32-.47,7.9-.8l.25,2C306.89,260.56,304.19,260.83,301.49,261Zm-40.08-1.43c-2.68-.38-5.35-.82-7.92-1.3l.37-2c2.55.48,5.18.91,7.83,1.29Zm56-.64-.37-2c2.62-.49,5.22-1,7.75-1.68l.49,1.94C322.74,257.91,320.09,258.48,317.44,259Zm-71.81-2.36c-2.64-.64-5.25-1.36-7.76-2.13l.59-1.91c2.47.76,5,1.47,7.64,2.1Zm87.43-1.54-.61-1.9c2.54-.82,5.05-1.72,7.45-2.68l.74,1.86C338.2,253.33,335.65,254.24,333.06,255.07Zm-102.8-3.22c-2.55-1-5-2-7.41-3.18l.86-1.8C226,248,228.48,249,231,250ZM348,249.07l-.88-1.79c2.39-1.18,4.73-2.45,6.94-3.78l1,1.71C352.84,246.57,350.46,247.87,348,249.07Zm-132.29-4.18a80.35,80.35,0,0,1-6.76-4.43l1.18-1.61c2.08,1.51,4.3,3,6.59,4.32Zm146.11-4.16-1.19-1.61a75.35,75.35,0,0,0,6.12-5l1.34,1.48A77,77,0,0,1,361.83,240.73Zm-159.14-5.38a70.29,70.29,0,0,1-5.67-5.79l1.51-1.31a69.32,69.32,0,0,0,5.5,5.62Zm171.1-5.48-1.49-1.33a65,65,0,0,0,4.83-6.19l1.65,1.13A66.36,66.36,0,0,1,373.79,229.87Zm-181.7-6.74a66.9,66.9,0,0,1-4.1-7l1.78-.91a62,62,0,0,0,4,6.78Zm190.82-6.64-1.78-.9a53.58,53.58,0,0,0,3-7.24l1.9.62A54.65,54.65,0,0,1,382.91,216.49Zm-198.13-7.8a68.18,68.18,0,0,1-2.31-7.76l1.95-.46a67,67,0,0,0,2.24,7.54Zm203.14-7.63-2-.31a46.42,46.42,0,0,0,.56-7.14V193l2,0v.68A48.05,48.05,0,0,1,387.92,201.06ZM181.05,193c-.32-2.63-.51-5.35-.57-8.07l2,0a75.5,75.5,0,0,0,.56,7.87Zm204.66-7.77a45.51,45.51,0,0,0-2.12-7.52l1.87-.7a47.16,47.16,0,0,1,2.21,7.84Zm-203-8.23-2-.15c.19-2.64.5-5.34.93-8l2,.32C183.17,171.73,182.86,174.37,182.68,177Zm197.55-6.35a51.43,51.43,0,0,0-4.43-6.46l1.56-1.25a53.6,53.6,0,0,1,4.6,6.71Zm-195.07-9.25-1.94-.48c.64-2.6,1.39-5.21,2.24-7.75l1.9.63C186.52,156.25,185.78,158.81,185.16,161.36Zm5-15-1.84-.78c1.07-2.5,2.24-5,3.48-7.29l1.77.94C192.35,141.51,191.21,143.92,190.16,146.36Zm7.44-13.94-1.68-1.08c1.37-2.13,2.87-4.38,4.43-6.68l1.66,1.12C200.45,128.08,199,130.31,197.6,132.42Zm9-13.21-1.64-1.15c1.51-2.15,3.07-4.33,4.65-6.52l1.62,1.17C209.61,114.89,208.06,117.06,206.55,119.21Zm9.35-12.95-1.61-1.19q2.37-3.21,4.79-6.41l1.6,1.2C219.07,102,217.48,104.13,215.9,106.26Zm9.62-12.76-1.59-1.22c1.63-2.13,3.27-4.24,4.89-6.33l1.58,1.23Q228,90.3,225.52,93.5Zm9.81-12.61-1.57-1.24q2.53-3.21,5-6.27l1.56,1.25C238.67,76.66,237,78.76,235.33,80.89Zm10-12.5-1.56-1.25c1.74-2.16,3.43-4.24,5-6.22l1.55,1.27C248.73,64.16,247.05,66.24,245.31,68.39ZM255.41,56l-1.54-1.27c1.87-2.27,3.58-4.33,5.11-6.17l1.54,1.29C259,51.68,257.28,53.74,255.41,56Z"/><path class="cls-6" d="M370.37,158.25c-.95-.89-1.93-1.77-2.95-2.62l1.29-1.53c1,.87,2.06,1.78,3,2.7Z"/><path class="cls-37" d="M60.87,200.74,59,200a53.2,53.2,0,0,1,2.58-5V199Z"/><path class="cls-37" d="M93.85,266.38c-1.24,0-2.54,0-3.84-.12l.11-2a61.67,61.67,0,0,0,7.95,0l.15,2C96.81,266.32,95.34,266.38,93.85,266.38Zm-12-1a53,53,0,0,1-8-2l.64-1.9a51.47,51.47,0,0,0,7.69,1.9Zm24.5-.4-.47-1.94a38.2,38.2,0,0,0,7.41-2.62l.86,1.81A40.4,40.4,0,0,1,106.36,265Zm-40-5a29.62,29.62,0,0,1-6.5-5.22l1.46-1.36a27.86,27.86,0,0,0,6.07,4.87Zm54.86-2.14L120,256.24a34.51,34.51,0,0,0,5.52-5.55l1.57,1.24A37,37,0,0,1,121.19,257.81Zm-66.06-10a32.63,32.63,0,0,1-2.59-7.91l2-.38A30.76,30.76,0,0,0,56.93,247ZM131.5,245l-1.79-.91a47.79,47.79,0,0,0,3-7.33l1.91.61A50.27,50.27,0,0,1,131.5,245ZM51.76,231.69v-.23a60.31,60.31,0,0,1,.56-8l2,.26a58.07,58.07,0,0,0-.54,7.71v.22Zm84.81-2.34-2-.35a74.86,74.86,0,0,0,1-7.92l2,.14A78.53,78.53,0,0,1,136.57,229.35ZM55.79,215.91l-1.94-.47c.63-2.57,1.39-5.21,2.28-7.85l1.89.63C57.16,210.81,56.41,213.4,55.79,215.91Zm80-2.83c0-2.59-.18-5.28-.43-8l2-.18c.25,2.77.4,5.51.44,8.15Zm-1.42-16c-.4-2.59-.9-5.25-1.47-7.9l2-.42c.58,2.69,1.09,5.38,1.5,8ZM131,181.41c-.69-2.55-1.46-5.14-2.29-7.7l1.9-.62c.84,2.6,1.62,5.22,2.32,7.8ZM126.12,166c-.82-2.57-1.58-5.2-2.26-7.83l1.94-.5c.67,2.59,1.42,5.19,2.23,7.72ZM122,150.27c-.54-2.65-1-5.35-1.41-8l2-.29c.39,2.64.86,5.3,1.39,7.92Zm-2.37-16.12c-.25-2.71-.43-5.45-.52-8.13l2-.07c.09,2.65.26,5.34.51,8Zm1.45-16.23-2,0c.07-2.75.24-5.49.48-8.14l2,.18C121.34,112.52,121.18,115.22,121.11,117.92Zm1.5-16-2-.33c.46-2.74,1-5.43,1.68-8l1.94.5C123.62,96.64,123.06,99.28,122.61,102Zm4-15.47-1.88-.68A68.12,68.12,0,0,1,128,78.27l1.78.9A66,66,0,0,0,126.6,86.49Zm7.22-14.13-1.63-1.15a43.49,43.49,0,0,1,5.36-6.28l1.39,1.44A41.86,41.86,0,0,0,133.82,72.36Zm49.08-9.58a65.73,65.73,0,0,0-7.36-3.05l.64-1.89A66.37,66.37,0,0,1,183.77,61Zm-37.75-1.19-1-1.72a32.73,32.73,0,0,1,7.61-3.32l.56,1.92A31.28,31.28,0,0,0,145.15,61.59Zm22.72-3.82a37.86,37.86,0,0,0-7.85-.54l-.08-2a41.09,41.09,0,0,1,8.26.56Z"/><path class="cls-37" d="M193.41,68.86c-1.12-.74-2.24-1.46-3.34-2.14l1.05-1.7c1.12.69,2.26,1.42,3.4,2.18Z"/><path class="cls-15" d="M369.9,287.5l-5.54,3-3.87-2.09-37.14,20.12c-5.3,2.87-5.3,7.52,0,10.39l.47.26c5.3,2.87,13.89,2.87,19.19,0l26.89-14.56Z"/><polygon class="cls-43" points="376.11 297.6 393.07 287.81 393.07 283.26 362.7 289.86 376.11 297.6"/><polygon class="cls-44" points="376.11 293.06 393.07 283.26 379.66 275.52 362.7 285.31 376.11 293.06"/><polygon class="cls-43" points="387 284.91 389.57 283.42 385.81 281.26 383.24 282.74 387 284.91"/><polygon class="cls-45" points="385.81 281.65 383.58 282.94 383.24 282.74 385.81 281.26 389.57 283.42 389.23 283.62 385.81 281.65"/><polygon class="cls-43" points="380.5 281.15 383.06 279.67 379.31 277.5 376.74 278.99 380.5 281.15"/><polygon class="cls-45" points="379.31 277.89 377.08 279.18 376.74 278.99 379.31 277.5 383.06 279.67 382.73 279.87 379.31 277.89"/><path class="cls-14" d="M327.24,304.86l3.17,3,.56-.35,53.3-17.5v8l-34.85,20.13c-5,2.87-13,2.87-18,0l-.44-.26c-2.57-1.49-3.81-3.45-3.72-5.39h0Z"/><path class="cls-18" d="M331,299.45l34.85-20.12L384.27,290,349.42,310.1c-5,2.87-13,2.87-18,0l-.44-.25C326,307,326,302.32,331,299.45Z"/><path class="cls-46" d="M334.23,307.54a12.18,12.18,0,0,0,11,0c3.05-1.76,3.05-4.61,0-6.37a12.24,12.24,0,0,0-11,0C331.18,302.93,331.19,305.78,334.23,307.54Z"/><path class="cls-23" d="M67.31,59.77s-.14,7.18,3.61,8.74c3-.6-.35-8.33-.35-8.33Z"/><path class="cls-20" d="M113.14,117.53a3.3,3.3,0,0,0,1.22-1.27l-2.53,1.42A13.11,13.11,0,0,0,113.14,117.53Z"/><path class="cls-20" d="M122.6,185.68h0a2.15,2.15,0,0,0-.24-.48c-1.09-1.59-5.62-5.12-6.88-6.09l.1-.18s.92-24.24-1.63-34.71c-.94-3.83-4.4-7.91-8.41-11.54l-.3-7.14.61-4.51L72.57,139.68c6.16,2.82,13.5,6.11,13.5,6.11s4.6,45.53,4.84,45.71a.63.63,0,0,0-.25.38,10.24,10.24,0,0,0-.13,1.39v.09a1.84,1.84,0,0,0,.07.42v0a1,1,0,0,0,.2.35l.06.07a1.48,1.48,0,0,0,.38.3c.92.53,1.94,1.19,6.69,3.7.29.15.57.28.84.4l.26.11.53.21.28.09.46.13.28.07.41.08.27,0,.36,0h.82l.27,0,.23,0a1.29,1.29,0,0,0,.21-.06l.23-.07.13-.06a1.79,1.79,0,0,0,.24-.12,1.34,1.34,0,0,0,.67-1.6h0a1.75,1.75,0,0,0-.23-.48c-1-1.49-5.06-4.68-6.61-5.87l.16-.16s0-23.21-1.51-33.88c-.55-4,3.44-.3.42-4,4.73,1.91,7.87-7.57,7.87-7.57l4,35.49.21.09a4.41,4.41,0,0,0,0,.6v.09a1.75,1.75,0,0,0,.07.42v0a1.07,1.07,0,0,0,.2.36l.07.07a1.71,1.71,0,0,0,.37.3c.93.52,1.94,1.19,6.7,3.7.28.15.56.28.83.4l.26.11.53.2.29.09.45.14.29.07.4.08.27,0,.37,0h.82l.26,0,.24,0,.2-.06.23-.08.13-.05.24-.12A1.35,1.35,0,0,0,122.6,185.68Z"/><path class="cls-47" d="M114.82,126.53s-5.71.47-6.92,5.17c-1,4-2.58,1.6-2.25,2.35s3.21,6.4,6,3.9,6.79-5.09,5.23-10.38A3.69,3.69,0,0,0,114.82,126.53Z"/><path class="cls-23" d="M99.29,136.36s-5.71.47-6.92,5.17c-1,4-1,4.21-.66,5s1.62,3.79,4.37,1.29,8.34-3.25,6.78-8.54C101.75,138.24,99.29,136.36,99.29,136.36Z"/><path class="cls-48" d="M89.41,68.58s-.11-1-2.85,5.06S90.4,99.15,92,101.28s21.14,8.13,25.45,1.49c-2.69-1.39-.1-3.37-.62-6.48-8,2.8-19.53-2-22-4.05C90.75,88.86,96.79,77,89.41,68.58Z"/><path class="cls-18" d="M119.84,167.37s6.68,4.47,8,6.33-1.5,3.83-6.26,1.32-5.77-3.18-6.7-3.7-.86-3.1,0-4.64C115.52,165.48,119.84,167.37,119.84,167.37Z"/><path class="cls-22" d="M114.84,170.46c.93.53,1.94,1.19,6.7,3.71,3.58,1.88,6,1.23,6.49,0,.53,1.68-2.15,3.13-6.49.84-4.76-2.51-5.77-3.18-6.7-3.7-.7-.41-.77-.94-.68-1.78A1.24,1.24,0,0,0,114.84,170.46Z"/><path class="cls-49" d="M69.66,110.22s.22,13.44,12.09,16.36,27.4,7.47,27.4,7.47l5.94,34s2,2,3.6,1.36a1.92,1.92,0,0,0,1.15-2s.82-25.16-1.38-35.71c-1.62-7.79-29.18-19.54-29.18-19.54Z"/><path class="cls-23" d="M116.84,127.57c-6.36-9-21.38-17.63-21.38-17.63l-25.8.28s.22,13.44,12.09,16.36c10,2.47,22.49,8.69,25.48,10.08C107.33,131.14,111.54,125.18,116.84,127.57Z"/><path class="cls-18" d="M102.4,179.05s5.95,4.5,7.22,6.35-1.49,3.83-6.25,1.32-5.77-3.17-6.7-3.7-.93-3.34.08-5.13C97.42,176.69,102.4,179.05,102.4,179.05Z"/><path class="cls-22" d="M96.67,182.17c.93.53,1.94,1.19,6.7,3.7,3.57,1.88,6,1.24,6.49,0,.53,1.68-2.15,3.13-6.49.84-4.76-2.51-5.77-3.17-6.7-3.7-.71-.41-.77-.94-.68-1.78A1.24,1.24,0,0,0,96.67,182.17Z"/><path class="cls-50" d="M57.91,118.16s-1.15,13.39,10.37,17.5S94,145,94,145l2.79,33.73a3.94,3.94,0,0,0,3.29,1.54c2.37,0,2.29-1.21,2.29-1.21s2.51-24.39,1-35.06S86.7,120.78,86.7,120.78Z"/><path class="cls-24" d="M102.86,139.24c-4.37-9.31-16.16-18.46-16.16-18.46l-28.79-2.62s-1.15,13.39,10.37,17.5C78.4,139.27,90,146.45,92.4,147.87,94,142.77,96.3,137.71,102.86,139.24Z"/><path class="cls-51" d="M97.13,111.06s1.28-40.15-11-44.84S62.7,72.69,57.91,83.5s-3.53,29.62,0,36.61C74.71,131.67,97.61,116.61,97.13,111.06Z"/><path class="cls-52" d="M57.91,83.5c4.79-10.81,16-22,28.25-17.28a6.29,6.29,0,0,1,1.16.58c-9,1.14-16.68,9.8-20.42,18.25-4.79,10.81-3.53,29.62,0,36.61a23.7,23.7,0,0,0,5.18,2.69,24.41,24.41,0,0,1-14.17-4.24C54.38,113.12,53.12,94.31,57.91,83.5Z"/><path class="cls-53" d="M89.61,48.32s3.06,4.9.32,15.52c-2.22,8.6-2.55,13.36-6.14,13.73S69.44,75.3,70.61,66.35c-1.07-.23-3.26-4.33-1.53-7.59s2.94.3,2.94.3S72,52,77,49.37,89.61,48.32,89.61,48.32Z"/><path class="cls-23" d="M77.81,56.85c0-.41,3.84,5,10,3.28A3.78,3.78,0,0,1,85.18,58a5.42,5.42,0,0,0,5.57,1.82,8.24,8.24,0,0,1-2.22-1.29,6.06,6.06,0,0,0,4.57.34c-1.41-.61-1.2-1.54-1.2-1.54s1.25,1.24,3.67-.87c-1-.13-.89-4.65-4.45-7.91s-6.46-4-11.23-3.22A4.41,4.41,0,0,1,84,43.72c-1.9-1.07-5.93.84-7.12,2.6-3.71-1.42-10.69,1-8.39,14.55,0-.34.36-2.54,1.67-2.95s2.41,2.16,2.11,2.81a28.64,28.64,0,0,0-.44,4.5l1.69.89s-.52-3.35.68-4.36S77.58,62,77.81,56.85Z"/><polygon class="cls-8" points="118.78 87.13 111.53 96.86 88.08 91.4 89.43 121.7 110.75 121.44 117.78 112.9 118.78 87.13"/><polygon class="cls-7" points="118.78 83.03 111.53 96.86 110.75 121.44 117.78 112.9 118.78 83.03"/><path class="cls-54" d="M118.35,98.24s-1.61,3.3-2.61,3.68-.23,5.87,2.84,4.11S120.2,98.42,118.35,98.24Z"/><path class="cls-55" d="M98.23,107.82c-1.7-.12-3.64.29-6.63.35s-2.89-1.64-3-4.06c-.95.7-1.53,2.59-3,3.7s-2.25,0-2.25,0l-.33.24c-10.84-1.91-18.51-4.6-20.23-7.18S65.82,90.24,66.23,83c0,0,1-9-4.83-5.76s-7.75,26.46-7.75,29.11,19.46,6.31,29.63,7.24a13.88,13.88,0,0,0,5.86,2C97.91,115.46,99.94,107.93,98.23,107.82Z"/><path class="cls-56" d="M67.72,82.24s-.52-8.25-6.32-5c-3,1.69-6,10.58-8.34,16.35A25.79,25.79,0,0,0,64,98.24,27,27,0,0,0,67.72,82.24Z"/></g></g></g></svg>