<svg xmlns="http://www.w3.org/2000/svg" viewBox="0 0 1366 1000"><defs><style>.cls-1{fill:#7f030c;}</style></defs><title>oc-bg-dark</title><g id="Layer_2" data-name="Layer 2"><g id="Layer_1-2" data-name="Layer 1"><path class="cls-1" d="M508.73,782.7c35.4,2,61.86-4.78,79.82-36.75a281.57,281.57,0,0,0,19.29-42.66c16.5-45.87,31.81-92.16,48.32-138,10.79-30,27.28-56.55,54.05-75,35.47-24.5,75.13-30,117-23.61,7.84,1.19,15.58,3.05,23.67,4.66,1.24-3.66,2.39-7.06,3.59-10.62-2-1-3.7-1.71-5.24-2.63-14.26-8.53-29.27-16.06-42.57-25.9-24.41-18.05-43.49-40.81-52.78-70.38-8.75-27.85-6.37-55.82,1.93-83.17,7.86-25.93,17.29-51.39,25.89-77.1,10.38-31.08,21.1-62.06,30.65-93.39,3.36-11,4.77-22.88,5.23-34.44,1-26.1-11-45.8-32.77-59.53C776.51,8.92,767.63,4.68,759,0h607V1000H0V698.09a24,24,0,0,1,2.26-1C38.72,684.65,75.89,675,114,669.39c27.61-4,55.37-6.06,83.2-3,53.79,6,88.46,20.53,147.79,54.84C413.3,760.74,464.72,780.2,508.73,782.7Z"/></g></g></svg>