<svg xmlns="http://www.w3.org/2000/svg" viewBox="0 0 1371.88 1022.97"><defs><style>.cls-1{fill:#ab010e;}</style></defs><title>oc-bg-medium</title><g id="Layer_2" data-name="Layer 2"><g id="Layer_1-2" data-name="Layer 1"><path class="cls-1" d="M1371.88,0V1023H0c.25-91.81,0-183.64.09-275.45,126.2-51.79,272.67-62.88,395.78-.7,95.57,48.27,152.5,87.76,213.34,64,42.38-16.52,57.63-59,71.29-96.43,14.52-43,28.92-86.16,44.78-128.71,25-80.53,116.93-112.78,193.57-89.52l3.51-10.73c-201.94-100.15-56.05-235.2-37-388,6-62.86-62.75-77.58-108.21-96.79l.24-.58Q1074.61,0,1371.88,0Z"/></g></g></svg>