<svg xmlns="http://www.w3.org/2000/svg" viewBox="0 0 42.07 87.53"><defs><style>.cls-1{fill:#cb2127;}</style></defs><title>oc_icon</title><g id="Layer_2" data-name="Layer 2"><g id="Layer_1-2" data-name="Layer 1"><path class="cls-1" d="M28.89,72.38Q28.89,80,25,83.77T14.12,87.53H0V77.18H7.44a24.11,24.11,0,0,0,4.61-.38,6.13,6.13,0,0,0,3-1.41,5.78,5.78,0,0,0,1.6-2.87,19.92,19.92,0,0,0,.47-4.75V57q0-6.12,3.43-9.37a13.8,13.8,0,0,1,8.8-3.62v-.94a15,15,0,0,1-8.84-3.44c-2.26-2-3.39-5-3.39-9.18V19.77A17.82,17.82,0,0,0,16.61,15,5.91,5.91,0,0,0,15,12.14a6.07,6.07,0,0,0-3-1.41,22.64,22.64,0,0,0-4.47-.38H0V0H14.12q7.34,0,11.06,4.05t3.71,11.2v12q0,6.23,3.35,9t9.83,2.78v9.41q-6.41,0-9.79,2.64t-3.39,9.5Z"/></g></g></svg>