<svg xmlns="http://www.w3.org/2000/svg" viewBox="0 0 87.53 42.07"><defs><style>.cls-1{fill:#fff;}</style></defs><title>oc-icon-white</title><g id="Layer_2" data-name="Layer 2"><g id="Layer_1-2" data-name="Layer 1"><path class="cls-1" d="M44.75,22A6.19,6.19,0,0,1,43,22a16.82,16.82,0,0,0-12.53-4.88H19.76A19.92,19.92,0,0,1,15,16.66a5.71,5.71,0,0,1-2.87-1.6,6.13,6.13,0,0,1-1.41-3,24,24,0,0,1-.38-4.61V0H0V14.12Q0,21.17,3.76,25t11.39,3.85H26.92q6.87,0,9.5,3.39t2.64,9.79h9.41q0-6.49,2.78-9.83t9-3.35h12q7.16,0,11.2-3.71t4-11.06V0H77.18V7.53a23.19,23.19,0,0,1-.38,4.56,6.07,6.07,0,0,1-1.41,3,5.71,5.71,0,0,1-2.87,1.6,20,20,0,0,1-4.76.47H57S48.79,16.66,44.75,22Z"/></g></g></svg>