<svg xmlns="http://www.w3.org/2000/svg" viewBox="0 0 42.07 87.53"><defs><style>.cls-1{fill:#7f030c;}</style></defs><title>oc-icon</title><g id="Layer_2" data-name="Layer 2"><g id="Layer_1-2" data-name="Layer 1"><path class="cls-1" d="M28.89,60.61q0-6.87,3.39-9.5t9.79-2.64V39.06q-6.49,0-9.83-2.78t-3.35-9v-12q0-7.15-3.71-11.2T14.12,0H0V10.35H7.53a23.19,23.19,0,0,1,4.56.38,6.07,6.07,0,0,1,3,1.41A5.71,5.71,0,0,1,16.66,15a20,20,0,0,1,.47,4.76V30.49c0,4.15,1.13,7.2,3.39,9.18a15,15,0,0,0,8.84,3.44v.94a13.82,13.82,0,0,0-8.8,3.62Q17.14,50.93,17.13,57V67.77a19.92,19.92,0,0,1-.47,4.75,5.71,5.71,0,0,1-1.6,2.87,6.13,6.13,0,0,1-3,1.41,24,24,0,0,1-4.61.38H0V87.53H14.12q7.05,0,10.92-3.76t3.85-11.39Z"/></g></g></svg>