<svg xmlns="http://www.w3.org/2000/svg" viewBox="0 0 387.32 89.73"><defs><style>.cls-1{font-size:60px;font-family:DINCondensed-Bold, DIN Condensed;font-weight:700;letter-spacing:-0.01em;}.cls-1,.cls-3{fill:#cb2127;}.cls-2{letter-spacing:-0.1em;}.cls-4{fill:none;stroke:#cb2127;stroke-miterlimit:10;stroke-width:4px;}.cls-5{fill:#fff;}</style></defs><title>oc-logo</title><g id="Layer_2" data-name="Layer 2"><g id="Layer_1-2" data-name="Layer 1"><text class="cls-1" transform="translate(121.54 67.19)">ON<tspan class="cls-2" x="51" y="0">L</tspan><tspan x="67.08" y="0">Y COURSE</tspan></text><rect class="cls-3" x="2" y="2" width="106.65" height="85.73"/><rect class="cls-4" x="2" y="2" width="383.32" height="85.73"/><path class="cls-5" d="M24.35,57.86q0-5.3-2.61-7.33c-1.74-1.36-4.26-2-7.55-2V41.24q5,0,7.58-2.15c1.72-1.42,2.58-3.74,2.58-6.93V22.87q0-5.52,2.87-8.64c1.91-2.09,4.76-3.13,8.53-3.13H46.64v8H40.83a18.26,18.26,0,0,0-3.52.29A4.68,4.68,0,0,0,35,20.47a4.31,4.31,0,0,0-1.24,2.21,15.37,15.37,0,0,0-.36,3.67v8.28q0,4.78-2.62,7.08A11.55,11.55,0,0,1,24,44.36v.72a10.67,10.67,0,0,1,6.79,2.8c1.76,1.67,2.65,4.08,2.65,7.22v8.28a15.37,15.37,0,0,0,.36,3.67A4.31,4.31,0,0,0,35,69.26a4.7,4.7,0,0,0,2.32,1.09,18.79,18.79,0,0,0,3.56.29h5.73v8H35.75q-5.45,0-8.42-2.91t-3-8.78Z"/><path class="cls-5" d="M56.65,66.94c0,3.92-1,6.85-3,8.78s-4.79,2.91-8.42,2.91H34.36v-8h5.73a18.79,18.79,0,0,0,3.56-.29A4.7,4.7,0,0,0,46,69.26a4.39,4.39,0,0,0,1.24-2.21,15.37,15.37,0,0,0,.36-3.67V55.1q0-4.71,2.65-7.22A10.67,10.67,0,0,1,57,45.08v-.72a11.61,11.61,0,0,1-6.83-2.65q-2.61-2.3-2.61-7.08V26.35a13.76,13.76,0,0,0-.4-3.67,4.27,4.27,0,0,0-3.56-3.3,17.7,17.7,0,0,0-3.45-.29h-5.8v-8H45.25c3.77,0,6.62,1,8.53,3.13s2.87,5,2.87,8.64v9.29c0,3.19.86,5.51,2.57,6.93s4.25,2.15,7.59,2.15V48.5c-3.29,0-5.81.67-7.55,2s-2.61,3.8-2.61,7.33Z"/><path class="cls-5" d="M68.59,57.86q0-5.3-2.62-7.33c-1.74-1.36-4.26-2-7.55-2V41.24q5,0,7.59-2.15c1.72-1.42,2.58-3.74,2.58-6.93V22.87c0-3.68,1-6.56,2.87-8.64S76.21,11.1,80,11.1H90.88v8H85.07a18.12,18.12,0,0,0-3.52.29,4.67,4.67,0,0,0-2.29,1.09A4.37,4.37,0,0,0,78,22.68a14.81,14.81,0,0,0-.37,3.67v8.28q0,4.78-2.61,7.08a11.58,11.58,0,0,1-6.83,2.65v.72A10.65,10.65,0,0,1,75,47.88q2.65,2.5,2.65,7.22v8.28A14.81,14.81,0,0,0,78,67.05a4.37,4.37,0,0,0,1.23,2.21,4.74,4.74,0,0,0,2.32,1.09,18.86,18.86,0,0,0,3.56.29h5.74v8H80q-5.44,0-8.43-2.91t-3-8.78Z"/></g></g></svg>